HIERARCHY
ROOT pelvis
{
  OFFSET 0 100 0
  CHANNELS 6 Xposition Yposition Zposition Zrotation Xrotation Yrotation
  JOINT pelvis_right_femur
  {
    OFFSET -10.78128 -3.44521 -0.5502486
    CHANNELS 3 Zrotation Xrotation Yrotation
    JOINT right_femur_tibia
    {
      OFFSET -0.8047443 -44.0398 -0.1307829
      CHANNELS 3 Zrotation Xrotation Yrotation
      JOINT right_tibia_foot
      {
        OFFSET 3.006224 -47.83518 -5
        CHANNELS 3 Zrotation Xrotation Yrotation
        End Site
        {
          OFFSET 0 -5 15
        }
      }
    }
  }
  JOINT pelvis_left_femur
  {
    OFFSET 10.78128 -3.44521 -0.5502486
    CHANNELS 3 Zrotation Xrotation Yrotation
    JOINT left_femur_tibia
    {
      OFFSET 0.8047443 -44.0398 -0.1307829
      CHANNELS 3 Zrotation Xrotation Yrotation
      JOINT left_tibia_foot
      {
        OFFSET -4.370144 -48.10324 -4.275266
        CHANNELS 3 Zrotation Xrotation Yrotation
        End Site
        {
          OFFSET 0 -5 15
        }
      }
    }
  }
  JOINT pelvis_spine1
  {
    OFFSET 0 6.468898 -3.129235
    CHANNELS 3 Zrotation Xrotation Yrotation
    JOINT spine1
    {
      OFFSET 0 23.15396 4.99043
      CHANNELS 3 Zrotation Xrotation Yrotation
      JOINT spine2
      {
        OFFSET 0 20.79997 -5.064912
        CHANNELS 3 Zrotation Xrotation Yrotation
        JOINT neck
        {
          OFFSET 0 14.38658 9.616178
          CHANNELS 3 Zrotation Xrotation Yrotation
          End Site
          {
            OFFSET 0 20 0
          }
        }
      }
      JOINT right_manubrium
      {
        OFFSET -5.722621 16.35077 3.967754
        CHANNELS 3 Zrotation Xrotation Yrotation
        JOINT right_clavicle
        {
          OFFSET -13.16364 1.694482 -4.693211
          CHANNELS 3 Zrotation Xrotation Yrotation
          JOINT right_humerus
          {
            OFFSET -28.5034 -0.3100689 -2.792744
            CHANNELS 3 Zrotation Xrotation Yrotation
            JOINT right_radius
            {
              OFFSET -25.15693 0.02248979 -1.271978
              CHANNELS 3 Zrotation Xrotation Yrotation
              End Site
              {
                OFFSET -15 0 0
              }
            }
          }
        }
      }
      JOINT left_manubrium
      {
        OFFSET 5.722621 16.35077 3.967754
        CHANNELS 3 Zrotation Xrotation Yrotation
        JOINT left_clavicle
        {
          OFFSET 13.16364 1.694482 -4.693211
          CHANNELS 3 Zrotation Xrotation Yrotation
          JOINT left_humerus
          {
            OFFSET 29.39168 -1.063119 -2.237045
            CHANNELS 3 Zrotation Xrotation Yrotation
            JOINT left_radius
            {
              OFFSET 24.59957 -0.9528479 0.9047498
              CHANNELS 3 Zrotation Xrotation Yrotation
              End Site
              {
                OFFSET 15 -0 -0
              }
            }
          }
        }
      }
    }
  }
}
MOTION
Frames: 7
Frame Time: 0.0416666666667
-522.0423 103.6917 722.2092 -17.54924 5.927163 -117.6033 5.494705 -0.3237125 -6.414394 -0 5.795024 -0 -12.86682 10.14358 -3.364609 -0.5227084 2.052323 3.143573 -0 31.28071 -0 6.868749 -5.903507 11.21343 1.330201 -5.720574 8.382496 -1.437833 22.83822 -9.362875 0.5989221 19.60689 -0.8459777 3.51274 -11.6111 -3.429564 -10.02107 -33.21112 13.32611 103.6376 0.3139234 -22.17685 -0 0 22.83779 -31.02672 10.03798 10.6965 0.8275402 -33.44366 -19.91534 -82.80103 2.926891 25.98508 0 0 -34.35124 5.679571 12.63165 2.133076
-528.5963 103.6912 719.0333 -17.43558 6.262839 -118.6746 5.494619 -0.324062 -6.414628 -0 5.794755 -0 -12.86689 10.144 -3.364515 -0.522847 2.052685 3.143681 -0 31.28075 -0 6.868832 -5.903644 11.21334 1.330164 -5.720631 8.382486 -1.437855 22.83831 -9.362935 0.5988936 19.6069 -0.8459908 3.512843 -11.611 -3.429712 -10.02112 -33.21109 13.32614 103.6377 0.3137818 -22.17705 -0 0 22.83761 -31.0269 10.03786 10.69648 0.827566 -33.44389 -19.9155 -82.8008 2.926706 25.98474 0 0 -34.35181 5.679642 12.63156 2.132906
-535.0872 103.6908 715.7303 -17.31554 6.596346 -119.7472 5.494544 -0.3244052 -6.414843 -0 5.794462 -0 -12.86694 10.14441 -3.364439 -0.5229918 2.053047 3.143785 -0 31.28092 -0 6.86893 -5.903787 11.21327 1.330125 -5.720685 8.382474 -1.437872 22.8384 -9.362991 0.5988736 19.60691 -0.8460043 3.512925 -11.61093 -3.429834 -10.0212 -33.21104 13.32615 103.6379 0.3136233 -22.17725 -0 0 22.8374 -31.02706 10.03773 10.69645 0.8275901 -33.4441 -19.91565 -82.80056 2.926536 25.98438 0 0 -34.35237 5.67973 12.63149 2.132723
-541.5125 103.6904 712.3014 -17.18914 6.927568 -120.8214 5.494484 -0.3247177 -6.415027 -0 5.794169 -0 -12.86699 10.14479 -3.364386 -0.5231321 2.053382 3.143878 -0 31.28121 -0 6.869035 -5.903925 11.21323 1.330087 -5.720735 8.382461 -1.437884 22.83846 -9.36304 0.5988631 19.60694 -0.8460172 3.512981 -11.61089 -3.429922 -10.0213 -33.21099 13.32615 103.638 0.3134598 -22.17744 -0 0 22.83716 -31.02719 10.0376 10.69639 0.8276108 -33.4443 -19.91578 -82.80035 2.926391 25.98402 0 0 -34.35288 5.679827 12.63142 2.13254
-547.8698 103.69 708.7479 -17.05641 7.256387 -121.897 5.494445 -0.3249785 -6.415167 -0 5.793896 -0 -12.86702 10.14512 -3.36436 -0.523258 2.053667 3.143953 -0 31.28158 -0 6.86914 -5.90405 11.21323 1.330053 -5.720775 8.382448 -1.43789 22.83851 -9.363079 0.5988624 19.60696 -0.8460285 3.513009 -11.6109 -3.429971 -10.02141 -33.21092 13.32614 103.6382 0.3133033 -22.17761 -0 0 22.83691 -31.02729 10.03748 10.69633 0.8276267 -33.44446 -19.91587 -82.80017 2.926281 25.98369 0 0 -34.35332 5.679926 12.63138 2.13237
-554.1566 103.6895 705.0711 -16.91735 7.582685 -122.9742 5.494427 -0.3251711 -6.415255 -0 5.793662 -0 -12.86703 10.14536 -3.364361 -0.5233612 2.053885 3.144007 -0 31.28201 -0 6.869236 -5.904153 11.21325 1.330025 -5.720804 8.382435 -1.43789 22.83854 -9.363104 0.5988712 19.607 -0.8460376 3.513007 -11.61094 -3.429979 -10.02153 -33.21085 13.32612 103.6383 0.3131648 -22.17774 -0 0 22.83667 -31.02734 10.03738 10.69627 0.827637 -33.44457 -19.91593 -82.80004 2.926212 25.98341 0 0 -34.35365 5.680019 12.63135 2.132226
-560.3705 103.6892 701.2724 -16.77199 7.906343 -124.053 5.494431 -0.3252847 -6.415287 -0 5.793482 -0 -12.86703 10.14552 -3.364387 -0.5234352 2.054023 3.144036 -0 31.28247 -0 6.869318 -5.904227 11.21331 1.330005 -5.720821 8.382424 -1.437884 22.83854 -9.363116 0.5988884 19.60703 -0.8460439 3.512978 -11.61101 -3.429948 -10.02164 -33.21078 13.3261 103.6385 0.3130534 -22.17783 -0 0 22.83646 -31.02735 10.0373 10.6962 0.8276411 -33.44463 -19.91595 -82.79997 2.926188 25.98319 0 0 -34.35385 5.6801 12.63135 2.132116
